G75*
G70*
%OFA0B0*%
%FSLAX24Y24*%
%IPPOS*%
%LPD*%
%AMOC8*
5,1,8,0,0,1.08239X$1,22.5*
%
%ADD10C,0.0040*%
%ADD11C,0.0080*%
%ADD12C,0.0010*%
D10*
X001916Y002415D02*
X002003Y002415D01*
X002046Y002458D01*
X002046Y002545D01*
X001959Y002545D01*
X001873Y002632D02*
X001916Y002675D01*
X002003Y002675D01*
X002046Y002632D01*
X002149Y002675D02*
X002149Y002415D01*
X002322Y002415D02*
X002149Y002675D01*
X002322Y002675D02*
X002322Y002415D01*
X002425Y002415D02*
X002555Y002415D01*
X002599Y002458D01*
X002599Y002632D01*
X002555Y002675D01*
X002425Y002675D01*
X002425Y002415D01*
X001916Y002415D02*
X001873Y002458D01*
X001873Y002632D01*
X003511Y003215D02*
X003511Y003475D01*
X003641Y003475D01*
X003684Y003432D01*
X003684Y003345D01*
X003641Y003301D01*
X003511Y003301D01*
X003598Y003301D02*
X003684Y003215D01*
X003598Y004002D02*
X003684Y004089D01*
X003684Y004262D01*
X003787Y004262D02*
X003787Y004002D01*
X003787Y004132D02*
X003830Y004176D01*
X003917Y004176D01*
X003961Y004132D01*
X003961Y004002D01*
X004063Y004045D02*
X004107Y004089D01*
X004237Y004089D01*
X004237Y004132D02*
X004237Y004002D01*
X004107Y004002D01*
X004063Y004045D01*
X004107Y004176D02*
X004193Y004176D01*
X004237Y004132D01*
X003684Y004790D02*
X003511Y004790D01*
X003511Y005050D01*
X003511Y005577D02*
X003511Y005837D01*
X003598Y005750D01*
X003684Y005837D01*
X003684Y005577D01*
X003787Y005577D02*
X003874Y005577D01*
X003830Y005577D02*
X003830Y005837D01*
X003787Y005837D02*
X003874Y005837D01*
X003971Y005794D02*
X003971Y005620D01*
X004015Y005577D01*
X004101Y005577D01*
X004145Y005620D01*
X004145Y005794D02*
X004101Y005837D01*
X004015Y005837D01*
X003971Y005794D01*
X003969Y006364D02*
X003925Y006408D01*
X003969Y006364D02*
X004055Y006364D01*
X004099Y006408D01*
X004099Y006451D01*
X004055Y006494D01*
X004012Y006494D01*
X004055Y006494D02*
X004099Y006538D01*
X004099Y006581D01*
X004055Y006625D01*
X003969Y006625D01*
X003925Y006581D01*
X003830Y006408D02*
X003830Y006364D01*
X003787Y006364D01*
X003787Y006408D01*
X003830Y006408D01*
X003684Y006408D02*
X003684Y006494D01*
X003641Y006538D01*
X003598Y006538D01*
X003511Y006494D01*
X003511Y006625D01*
X003684Y006625D01*
X003684Y006408D02*
X003641Y006364D01*
X003554Y006364D01*
X003511Y006408D01*
X003554Y007152D02*
X003511Y007195D01*
X003554Y007152D02*
X003641Y007152D01*
X003684Y007195D01*
X003684Y007282D01*
X003641Y007325D01*
X003598Y007325D01*
X003511Y007282D01*
X003511Y007412D01*
X003684Y007412D01*
X003787Y007195D02*
X003830Y007195D01*
X003830Y007152D01*
X003787Y007152D01*
X003787Y007195D01*
X003925Y007152D02*
X004099Y007325D01*
X004099Y007369D01*
X004055Y007412D01*
X003969Y007412D01*
X003925Y007369D01*
X003925Y007152D02*
X004099Y007152D01*
X004099Y007939D02*
X003925Y007939D01*
X004012Y007939D02*
X004012Y008199D01*
X003925Y008113D01*
X003830Y007982D02*
X003830Y007939D01*
X003787Y007939D01*
X003787Y007982D01*
X003830Y007982D01*
X003684Y007982D02*
X003641Y007939D01*
X003554Y007939D01*
X003511Y007982D01*
X003511Y008069D02*
X003598Y008113D01*
X003641Y008113D01*
X003684Y008069D01*
X003684Y007982D01*
X003511Y008069D02*
X003511Y008199D01*
X003684Y008199D01*
X003641Y008727D02*
X003554Y008727D01*
X003511Y008770D01*
X003511Y008857D02*
X003598Y008900D01*
X003641Y008900D01*
X003684Y008857D01*
X003684Y008770D01*
X003641Y008727D01*
X003787Y008727D02*
X003830Y008727D01*
X003830Y008770D01*
X003787Y008770D01*
X003787Y008727D01*
X003925Y008770D02*
X003925Y008943D01*
X003969Y008987D01*
X004055Y008987D01*
X004099Y008943D01*
X003925Y008770D01*
X003969Y008727D01*
X004055Y008727D01*
X004099Y008770D01*
X004099Y008943D01*
X004055Y009514D02*
X003969Y009514D01*
X003925Y009557D01*
X003925Y009644D01*
X004055Y009644D01*
X004099Y009601D01*
X004099Y009557D01*
X004055Y009514D01*
X003925Y009644D02*
X004012Y009731D01*
X004099Y009774D01*
X004055Y010301D02*
X003969Y010301D01*
X003925Y010345D01*
X003925Y010431D02*
X004012Y010475D01*
X004055Y010475D01*
X004099Y010431D01*
X004099Y010345D01*
X004055Y010301D01*
X003925Y010431D02*
X003925Y010562D01*
X004099Y010562D01*
X003830Y010345D02*
X003830Y010301D01*
X003787Y010301D01*
X003787Y010345D01*
X003830Y010345D01*
X003684Y010431D02*
X003511Y010431D01*
X003641Y010562D01*
X003641Y010301D01*
X003641Y009774D02*
X003511Y009644D01*
X003684Y009644D01*
X003787Y009557D02*
X003787Y009514D01*
X003830Y009514D01*
X003830Y009557D01*
X003787Y009557D01*
X003641Y009514D02*
X003641Y009774D01*
X003684Y008987D02*
X003511Y008987D01*
X003511Y008857D01*
X002343Y012117D02*
X002343Y012291D01*
X002343Y012204D02*
X002082Y012204D01*
X002169Y012117D01*
X002213Y012394D02*
X002213Y012567D01*
X002169Y012670D02*
X002082Y012756D01*
X002343Y012756D01*
X002343Y012670D02*
X002343Y012843D01*
X002213Y012946D02*
X002213Y013119D01*
X002169Y013222D02*
X002082Y013309D01*
X002343Y013309D01*
X002343Y013222D02*
X002343Y013396D01*
X002343Y013498D02*
X002343Y013672D01*
X002343Y013585D02*
X002082Y013585D01*
X002169Y013498D01*
X002132Y014089D02*
X002132Y014296D01*
X002080Y014411D02*
X002080Y014463D01*
X002287Y014463D01*
X002287Y014411D02*
X002287Y014515D01*
X002235Y014626D02*
X002287Y014678D01*
X002287Y014729D01*
X002235Y014781D01*
X001977Y014781D01*
X001977Y014729D02*
X001977Y014833D01*
X002080Y015000D02*
X002080Y015103D01*
X002132Y015155D01*
X002287Y015155D01*
X002287Y015000D01*
X002235Y014948D01*
X002184Y015000D01*
X002184Y015155D01*
X002235Y015270D02*
X002132Y015270D01*
X002080Y015322D01*
X002080Y015477D01*
X001977Y015593D02*
X002287Y015593D01*
X002184Y015593D02*
X002080Y015748D01*
X002184Y015593D02*
X002287Y015748D01*
X002287Y015477D02*
X002287Y015322D01*
X002235Y015270D01*
X001977Y014463D02*
X001925Y014463D01*
X001977Y014296D02*
X002287Y014296D01*
X002287Y014089D02*
X001977Y014089D01*
X002896Y013461D02*
X002939Y013504D01*
X003113Y013330D01*
X003156Y013374D01*
X003156Y013461D01*
X003113Y013504D01*
X002939Y013504D01*
X002896Y013461D02*
X002896Y013374D01*
X002939Y013330D01*
X003113Y013330D01*
X003156Y013228D02*
X002896Y013054D01*
X002939Y012951D02*
X003026Y012951D01*
X003069Y012908D01*
X003069Y012778D01*
X003069Y012865D02*
X003156Y012951D01*
X003156Y013054D02*
X002896Y013228D01*
X002939Y012951D02*
X002896Y012908D01*
X002896Y012778D01*
X003156Y012778D01*
X003683Y012778D02*
X003683Y012951D01*
X003683Y012865D02*
X003943Y012865D01*
X003943Y013054D02*
X003683Y013228D01*
X003727Y013330D02*
X003683Y013374D01*
X003683Y013461D01*
X003727Y013504D01*
X003900Y013330D01*
X003943Y013374D01*
X003943Y013461D01*
X003900Y013504D01*
X003727Y013504D01*
X003727Y013330D02*
X003900Y013330D01*
X003943Y013228D02*
X003683Y013054D01*
X004471Y013098D02*
X004514Y013054D01*
X004688Y013054D01*
X004731Y013098D01*
X004731Y013184D01*
X004688Y013228D01*
X004731Y013330D02*
X004731Y013504D01*
X004731Y013330D02*
X004471Y013330D01*
X004514Y013228D02*
X004471Y013184D01*
X004471Y013098D01*
X004514Y012951D02*
X004471Y012908D01*
X004471Y012821D01*
X004514Y012778D01*
X004557Y012778D01*
X004601Y012821D01*
X004601Y012908D01*
X004644Y012951D01*
X004688Y012951D01*
X004731Y012908D01*
X004731Y012821D01*
X004688Y012778D01*
X005258Y012778D02*
X005345Y012865D01*
X005258Y012951D01*
X005518Y012951D01*
X005518Y013054D02*
X005518Y013141D01*
X005518Y013098D02*
X005258Y013098D01*
X005258Y013141D02*
X005258Y013054D01*
X005301Y013238D02*
X005258Y013282D01*
X005258Y013368D01*
X005301Y013412D01*
X005475Y013238D01*
X005518Y013282D01*
X005518Y013368D01*
X005475Y013412D01*
X005301Y013412D01*
X005301Y013238D02*
X005475Y013238D01*
X005518Y012778D02*
X005258Y012778D01*
X006045Y012778D02*
X006132Y012865D01*
X006045Y012951D01*
X006306Y012951D01*
X006262Y013054D02*
X006306Y013098D01*
X006306Y013184D01*
X006262Y013228D01*
X006089Y013228D01*
X006045Y013184D01*
X006045Y013098D01*
X006089Y013054D01*
X006262Y013054D01*
X006262Y013330D02*
X006089Y013330D01*
X006045Y013374D01*
X006045Y013461D01*
X006089Y013504D01*
X006262Y013330D01*
X006306Y013374D01*
X006306Y013461D01*
X006262Y013504D01*
X006089Y013504D01*
X006045Y012778D02*
X006306Y012778D01*
X006833Y012821D02*
X006876Y012778D01*
X006920Y012778D01*
X006963Y012821D01*
X006963Y012908D01*
X007006Y012951D01*
X007050Y012951D01*
X007093Y012908D01*
X007093Y012821D01*
X007050Y012778D01*
X006876Y012951D02*
X006833Y012908D01*
X006833Y012821D01*
X006833Y013054D02*
X006833Y013228D01*
X006833Y013141D02*
X007093Y013141D01*
X007093Y013330D02*
X007093Y013504D01*
X006963Y013417D02*
X006963Y013330D01*
X006833Y013330D02*
X007093Y013330D01*
X006833Y013330D02*
X006833Y013504D01*
X007620Y013366D02*
X007664Y013279D01*
X007750Y013192D01*
X007750Y013322D01*
X007794Y013366D01*
X007837Y013366D01*
X007880Y013322D01*
X007880Y013236D01*
X007837Y013192D01*
X007750Y013192D01*
X007837Y013098D02*
X007880Y013098D01*
X007880Y013054D01*
X007837Y013054D01*
X007837Y013098D01*
X007880Y012951D02*
X007880Y012778D01*
X007707Y012951D01*
X007664Y012951D01*
X007620Y012908D01*
X007620Y012821D01*
X007664Y012778D01*
X008408Y012821D02*
X008451Y012778D01*
X008408Y012821D02*
X008408Y012908D01*
X008451Y012951D01*
X008494Y012951D01*
X008668Y012778D01*
X008668Y012951D01*
X008668Y013054D02*
X008668Y013098D01*
X008625Y013098D01*
X008625Y013054D01*
X008668Y013054D01*
X008625Y013192D02*
X008451Y013192D01*
X008408Y013236D01*
X008408Y013322D01*
X008451Y013366D01*
X008625Y013192D01*
X008668Y013236D01*
X008668Y013322D01*
X008625Y013366D01*
X008451Y013366D01*
X009195Y013322D02*
X009238Y013366D01*
X009282Y013366D01*
X009325Y013322D01*
X009369Y013366D01*
X009412Y013366D01*
X009455Y013322D01*
X009455Y013236D01*
X009412Y013192D01*
X009412Y013098D02*
X009455Y013098D01*
X009455Y013054D01*
X009412Y013054D01*
X009412Y013098D01*
X009455Y012951D02*
X009455Y012778D01*
X009455Y012865D02*
X009195Y012865D01*
X009282Y012778D01*
X009238Y013192D02*
X009195Y013236D01*
X009195Y013322D01*
X009325Y013322D02*
X009325Y013279D01*
X009982Y013236D02*
X010026Y013192D01*
X009982Y013236D02*
X009982Y013322D01*
X010026Y013366D01*
X010069Y013366D01*
X010243Y013192D01*
X010243Y013366D01*
X010243Y013098D02*
X010243Y013054D01*
X010199Y013054D01*
X010199Y013098D01*
X010243Y013098D01*
X010243Y012951D02*
X010243Y012778D01*
X010243Y012865D02*
X009982Y012865D01*
X010069Y012778D01*
X010924Y013315D02*
X010924Y013489D01*
X010924Y013402D02*
X011185Y013402D01*
X011185Y013591D02*
X011185Y013635D01*
X011141Y013635D01*
X011141Y013591D01*
X011185Y013591D01*
X011141Y014006D02*
X011185Y014049D01*
X011185Y014136D01*
X011141Y014179D01*
X011098Y014179D01*
X011054Y014136D01*
X011054Y014049D01*
X011011Y014006D01*
X010968Y014006D01*
X010924Y014049D01*
X010924Y014136D01*
X010968Y014179D01*
X011054Y014282D02*
X011141Y014282D01*
X011185Y014325D01*
X011185Y014456D01*
X011185Y014558D02*
X010924Y014558D01*
X011011Y014602D02*
X011011Y014688D01*
X011054Y014732D01*
X011185Y014732D01*
X011185Y014834D02*
X011011Y014834D01*
X011011Y014878D01*
X011054Y014921D01*
X011011Y014965D01*
X011054Y015008D01*
X011185Y015008D01*
X011185Y014921D02*
X011054Y014921D01*
X011011Y015111D02*
X011011Y015154D01*
X011185Y015154D01*
X011185Y015111D02*
X011185Y015197D01*
X011141Y015295D02*
X011054Y015295D01*
X011011Y015338D01*
X011011Y015468D01*
X010924Y015468D02*
X011185Y015468D01*
X011185Y015338D01*
X011141Y015295D01*
X010924Y015154D02*
X010881Y015154D01*
X011011Y014602D02*
X011054Y014558D01*
X011011Y014456D02*
X011011Y014325D01*
X011054Y014282D01*
X009662Y010562D02*
X009662Y010301D01*
X009575Y010301D02*
X009749Y010301D01*
X009575Y010475D02*
X009662Y010562D01*
X009472Y010562D02*
X009299Y010301D01*
X009196Y010301D02*
X009109Y010388D01*
X009153Y010388D02*
X009023Y010388D01*
X009023Y010301D02*
X009023Y010562D01*
X009153Y010562D01*
X009196Y010518D01*
X009196Y010431D01*
X009153Y010388D01*
X009299Y010562D02*
X009472Y010301D01*
X009472Y009774D02*
X009299Y009514D01*
X009472Y009514D02*
X009299Y009774D01*
X009196Y009774D02*
X009023Y009774D01*
X009109Y009774D02*
X009109Y009514D01*
X009109Y008987D02*
X009196Y008900D01*
X009196Y008727D01*
X009299Y008727D02*
X009299Y008770D01*
X009472Y008943D01*
X009472Y008987D01*
X009299Y008987D01*
X009196Y008857D02*
X009023Y008857D01*
X009023Y008900D02*
X009109Y008987D01*
X009023Y008900D02*
X009023Y008727D01*
X009109Y008199D02*
X009023Y008113D01*
X009023Y007939D01*
X009023Y008069D02*
X009196Y008069D01*
X009196Y008113D02*
X009196Y007939D01*
X009299Y007982D02*
X009342Y007939D01*
X009429Y007939D01*
X009472Y007982D01*
X009472Y008026D01*
X009429Y008069D01*
X009299Y008069D01*
X009299Y007982D01*
X009299Y008069D02*
X009386Y008156D01*
X009472Y008199D01*
X009196Y008113D02*
X009109Y008199D01*
X009109Y007412D02*
X009023Y007325D01*
X009023Y007152D01*
X009023Y007282D02*
X009196Y007282D01*
X009196Y007325D02*
X009196Y007152D01*
X009299Y007195D02*
X009342Y007152D01*
X009429Y007152D01*
X009472Y007195D01*
X009472Y007282D01*
X009429Y007325D01*
X009386Y007325D01*
X009299Y007282D01*
X009299Y007412D01*
X009472Y007412D01*
X009196Y007325D02*
X009109Y007412D01*
X009109Y006625D02*
X009023Y006538D01*
X009023Y006364D01*
X009023Y006494D02*
X009196Y006494D01*
X009196Y006538D02*
X009196Y006364D01*
X009299Y006494D02*
X009472Y006494D01*
X009429Y006364D02*
X009429Y006625D01*
X009299Y006494D01*
X009196Y006538D02*
X009109Y006625D01*
X009109Y005837D02*
X009109Y005577D01*
X009023Y005837D02*
X009196Y005837D01*
X009299Y005794D02*
X009299Y005620D01*
X009342Y005577D01*
X009429Y005577D01*
X009472Y005620D01*
X009575Y005577D02*
X009575Y005837D01*
X009472Y005794D02*
X009429Y005837D01*
X009342Y005837D01*
X009299Y005794D01*
X009575Y005664D02*
X009749Y005837D01*
X009618Y005707D02*
X009749Y005577D01*
X009749Y005050D02*
X009575Y005050D01*
X009662Y005050D02*
X009662Y004790D01*
X009472Y004833D02*
X009429Y004790D01*
X009342Y004790D01*
X009299Y004833D01*
X009342Y004920D02*
X009429Y004920D01*
X009472Y004876D01*
X009472Y004833D01*
X009342Y004920D02*
X009299Y004963D01*
X009299Y005006D01*
X009342Y005050D01*
X009429Y005050D01*
X009472Y005006D01*
X009196Y005006D02*
X009196Y004920D01*
X009153Y004876D01*
X009023Y004876D01*
X009109Y004876D02*
X009196Y004790D01*
X009196Y005006D02*
X009153Y005050D01*
X009023Y005050D01*
X009023Y004790D01*
X009066Y004262D02*
X009023Y004219D01*
X009023Y004045D01*
X009066Y004002D01*
X009153Y004002D01*
X009196Y004045D01*
X009196Y004132D01*
X009109Y004132D01*
X009196Y004219D02*
X009153Y004262D01*
X009066Y004262D01*
X009299Y004262D02*
X009299Y004002D01*
X009472Y004002D02*
X009472Y004262D01*
X009575Y004262D02*
X009705Y004262D01*
X009749Y004219D01*
X009749Y004045D01*
X009705Y004002D01*
X009575Y004002D01*
X009575Y004262D01*
X009299Y004262D02*
X009472Y004002D01*
X009196Y003475D02*
X009196Y003301D01*
X009109Y003215D01*
X009023Y003301D01*
X009023Y003475D01*
X009299Y003345D02*
X009299Y003258D01*
X009342Y003215D01*
X009472Y003215D01*
X009575Y003258D02*
X009618Y003215D01*
X009749Y003215D01*
X009749Y003388D02*
X009618Y003388D01*
X009575Y003345D01*
X009575Y003258D01*
X009472Y003388D02*
X009342Y003388D01*
X009299Y003345D01*
X009575Y009514D02*
X009749Y009514D01*
X009662Y009514D02*
X009662Y009774D01*
X009575Y009687D01*
X003511Y004262D02*
X003511Y004089D01*
X003598Y004002D01*
X002287Y016184D02*
X001977Y016184D01*
X001977Y016339D01*
X002028Y016390D01*
X002132Y016390D01*
X002184Y016339D01*
X002184Y016184D01*
X002184Y016506D02*
X002080Y016609D01*
X002080Y016661D01*
X002132Y016774D02*
X002235Y016774D01*
X002287Y016826D01*
X002287Y016929D01*
X002235Y016981D01*
X002132Y016981D01*
X002080Y016929D01*
X002080Y016826D01*
X002132Y016774D01*
X002080Y016506D02*
X002287Y016506D01*
X002080Y017097D02*
X002080Y017200D01*
X002028Y017148D02*
X002235Y017148D01*
X002287Y017200D01*
X002235Y017311D02*
X002132Y017311D01*
X002080Y017363D01*
X002080Y017466D01*
X002132Y017518D01*
X002235Y017518D01*
X002287Y017466D01*
X002287Y017363D01*
X002235Y017311D01*
D11*
X001673Y002885D02*
X001673Y002185D01*
X010623Y002185D01*
X010623Y002885D01*
X010623Y003685D01*
X004123Y003685D01*
X004123Y002885D01*
X010623Y002885D01*
X004123Y002885D02*
X001673Y002885D01*
D12*
X010575Y015723D02*
X010865Y015723D01*
X010865Y015823D01*
X011355Y015823D01*
X011545Y016013D01*
X011545Y016513D01*
X011355Y016703D01*
X010865Y016703D01*
X010865Y016793D01*
X010575Y016793D01*
X010575Y016313D01*
X010865Y016313D01*
X010865Y016403D01*
X011255Y016403D01*
X011255Y016113D01*
X010865Y016113D01*
X010865Y016213D01*
X010575Y016213D01*
X010575Y015723D01*
X010575Y015725D02*
X010865Y015725D01*
X010865Y015733D02*
X010575Y015733D01*
X010575Y015742D02*
X010865Y015742D01*
X010865Y015751D02*
X010575Y015751D01*
X010575Y015759D02*
X010865Y015759D01*
X010865Y015768D02*
X010575Y015768D01*
X010575Y015776D02*
X010865Y015776D01*
X010865Y015785D02*
X010575Y015785D01*
X010575Y015793D02*
X010865Y015793D01*
X010865Y015802D02*
X010575Y015802D01*
X010575Y015810D02*
X010865Y015810D01*
X010865Y015819D02*
X010575Y015819D01*
X010575Y015827D02*
X011359Y015827D01*
X011368Y015836D02*
X010575Y015836D01*
X010575Y015844D02*
X011376Y015844D01*
X011385Y015853D02*
X010575Y015853D01*
X010575Y015862D02*
X011393Y015862D01*
X011402Y015870D02*
X010575Y015870D01*
X010575Y015879D02*
X011410Y015879D01*
X011419Y015887D02*
X010575Y015887D01*
X010575Y015896D02*
X011427Y015896D01*
X011436Y015904D02*
X010575Y015904D01*
X010575Y015913D02*
X011445Y015913D01*
X011453Y015921D02*
X010575Y015921D01*
X010575Y015930D02*
X011462Y015930D01*
X011470Y015938D02*
X010575Y015938D01*
X010575Y015947D02*
X011479Y015947D01*
X011487Y015956D02*
X010575Y015956D01*
X010575Y015964D02*
X011496Y015964D01*
X011504Y015973D02*
X010575Y015973D01*
X010575Y015981D02*
X011513Y015981D01*
X011521Y015990D02*
X010575Y015990D01*
X010575Y015998D02*
X011530Y015998D01*
X011539Y016007D02*
X010575Y016007D01*
X010575Y016015D02*
X011545Y016015D01*
X011545Y016024D02*
X010575Y016024D01*
X010575Y016032D02*
X011545Y016032D01*
X011545Y016041D02*
X010575Y016041D01*
X010575Y016050D02*
X011545Y016050D01*
X011545Y016058D02*
X010575Y016058D01*
X010575Y016067D02*
X011545Y016067D01*
X011545Y016075D02*
X010575Y016075D01*
X010575Y016084D02*
X011545Y016084D01*
X011545Y016092D02*
X010575Y016092D01*
X010575Y016101D02*
X011545Y016101D01*
X011545Y016109D02*
X010575Y016109D01*
X010575Y016118D02*
X010865Y016118D01*
X010865Y016126D02*
X010575Y016126D01*
X010575Y016135D02*
X010865Y016135D01*
X010865Y016144D02*
X010575Y016144D01*
X010575Y016152D02*
X010865Y016152D01*
X010865Y016161D02*
X010575Y016161D01*
X010575Y016169D02*
X010865Y016169D01*
X010865Y016178D02*
X010575Y016178D01*
X010575Y016186D02*
X010865Y016186D01*
X010865Y016195D02*
X010575Y016195D01*
X010575Y016203D02*
X010865Y016203D01*
X010865Y016212D02*
X010575Y016212D01*
X010575Y016314D02*
X010865Y016314D01*
X010865Y016323D02*
X010575Y016323D01*
X010575Y016331D02*
X010865Y016331D01*
X010865Y016340D02*
X010575Y016340D01*
X010575Y016349D02*
X010865Y016349D01*
X010865Y016357D02*
X010575Y016357D01*
X010575Y016366D02*
X010865Y016366D01*
X010865Y016374D02*
X010575Y016374D01*
X010575Y016383D02*
X010865Y016383D01*
X010865Y016391D02*
X010575Y016391D01*
X010575Y016400D02*
X010865Y016400D01*
X010865Y016707D02*
X010575Y016707D01*
X010575Y016699D02*
X011359Y016699D01*
X011367Y016690D02*
X010575Y016690D01*
X010575Y016682D02*
X011376Y016682D01*
X011384Y016673D02*
X010575Y016673D01*
X010575Y016665D02*
X011393Y016665D01*
X011401Y016656D02*
X010575Y016656D01*
X010575Y016648D02*
X011410Y016648D01*
X011418Y016639D02*
X010575Y016639D01*
X010575Y016630D02*
X011427Y016630D01*
X011435Y016622D02*
X010575Y016622D01*
X010575Y016613D02*
X011444Y016613D01*
X011453Y016605D02*
X010575Y016605D01*
X010575Y016596D02*
X011461Y016596D01*
X011470Y016588D02*
X010575Y016588D01*
X010575Y016579D02*
X011478Y016579D01*
X011487Y016571D02*
X010575Y016571D01*
X010575Y016562D02*
X011495Y016562D01*
X011504Y016554D02*
X010575Y016554D01*
X010575Y016545D02*
X011512Y016545D01*
X011521Y016536D02*
X010575Y016536D01*
X010575Y016528D02*
X011529Y016528D01*
X011538Y016519D02*
X010575Y016519D01*
X010575Y016511D02*
X011545Y016511D01*
X011545Y016502D02*
X010575Y016502D01*
X010575Y016494D02*
X011545Y016494D01*
X011545Y016485D02*
X010575Y016485D01*
X010575Y016477D02*
X011545Y016477D01*
X011545Y016468D02*
X010575Y016468D01*
X010575Y016460D02*
X011545Y016460D01*
X011545Y016451D02*
X010575Y016451D01*
X010575Y016443D02*
X011545Y016443D01*
X011545Y016434D02*
X010575Y016434D01*
X010575Y016425D02*
X011545Y016425D01*
X011545Y016417D02*
X010575Y016417D01*
X010575Y016408D02*
X011545Y016408D01*
X011545Y016400D02*
X011255Y016400D01*
X011255Y016391D02*
X011545Y016391D01*
X011545Y016383D02*
X011255Y016383D01*
X011255Y016374D02*
X011545Y016374D01*
X011545Y016366D02*
X011255Y016366D01*
X011255Y016357D02*
X011545Y016357D01*
X011545Y016349D02*
X011255Y016349D01*
X011255Y016340D02*
X011545Y016340D01*
X011545Y016331D02*
X011255Y016331D01*
X011255Y016323D02*
X011545Y016323D01*
X011545Y016314D02*
X011255Y016314D01*
X011255Y016306D02*
X011545Y016306D01*
X011545Y016297D02*
X011255Y016297D01*
X011255Y016289D02*
X011545Y016289D01*
X011545Y016280D02*
X011255Y016280D01*
X011255Y016272D02*
X011545Y016272D01*
X011545Y016263D02*
X011255Y016263D01*
X011255Y016255D02*
X011545Y016255D01*
X011545Y016246D02*
X011255Y016246D01*
X011255Y016237D02*
X011545Y016237D01*
X011545Y016229D02*
X011255Y016229D01*
X011255Y016220D02*
X011545Y016220D01*
X011545Y016212D02*
X011255Y016212D01*
X011255Y016203D02*
X011545Y016203D01*
X011545Y016195D02*
X011255Y016195D01*
X011255Y016186D02*
X011545Y016186D01*
X011545Y016178D02*
X011255Y016178D01*
X011255Y016169D02*
X011545Y016169D01*
X011545Y016161D02*
X011255Y016161D01*
X011255Y016152D02*
X011545Y016152D01*
X011545Y016144D02*
X011255Y016144D01*
X011255Y016135D02*
X011545Y016135D01*
X011545Y016126D02*
X011255Y016126D01*
X011255Y016118D02*
X011545Y016118D01*
X010865Y016716D02*
X010575Y016716D01*
X010575Y016724D02*
X010865Y016724D01*
X010865Y016733D02*
X010575Y016733D01*
X010575Y016742D02*
X010865Y016742D01*
X010865Y016750D02*
X010575Y016750D01*
X010575Y016759D02*
X010865Y016759D01*
X010865Y016767D02*
X010575Y016767D01*
X010575Y016776D02*
X010865Y016776D01*
X010865Y016784D02*
X010575Y016784D01*
X010575Y016793D02*
X010865Y016793D01*
M02*
